<mxfile host="app.diagrams.net" agent="Mozilla/5.0 (Windows NT 10.0; Win64; x64) AppleWebKit/537.36 (KHTML, like Gecko) Chrome/137.0.0.0 Safari/537.36 OPR/121.0.0.0" version="28.2.5">
  <diagram name="Página-1" id="P9XQmv3S7znSG_ephX82">
    <mxGraphModel dx="954" dy="543" grid="1" gridSize="10" guides="1" tooltips="1" connect="1" arrows="1" fold="1" page="1" pageScale="1" pageWidth="827" pageHeight="1169" background="#ffffff" math="0" shadow="0">
      <root>
        <mxCell id="0" />
        <mxCell id="1" parent="0" />
        <object label="Usuário" id="g_5m_YDEpz64sHa5aTqE-2">
          <mxCell style="shape=umlActor;verticalLabelPosition=bottom;verticalAlign=top;html=1;outlineConnect=0;" parent="1" vertex="1">
            <mxGeometry x="150" y="120" width="30" height="60" as="geometry" />
          </mxCell>
        </object>
        <mxCell id="g_5m_YDEpz64sHa5aTqE-12" value="Aplicativo" style="rounded=0;whiteSpace=wrap;html=1;" parent="1" vertex="1">
          <mxGeometry x="240" y="200" width="120" height="50" as="geometry" />
        </mxCell>
        <mxCell id="g_5m_YDEpz64sHa5aTqE-13" value="Tarefa" style="rounded=0;whiteSpace=wrap;html=1;" parent="1" vertex="1">
          <mxGeometry x="400" y="200" width="120" height="50" as="geometry" />
        </mxCell>
        <mxCell id="g_5m_YDEpz64sHa5aTqE-14" value="Database" style="rounded=0;whiteSpace=wrap;html=1;" parent="1" vertex="1">
          <mxGeometry x="560" y="200" width="120" height="50" as="geometry" />
        </mxCell>
        <mxCell id="g_5m_YDEpz64sHa5aTqE-16" value="Agenda Virtual" style="text;html=1;align=center;verticalAlign=middle;whiteSpace=wrap;rounded=0;" parent="1" vertex="1">
          <mxGeometry x="180" y="90" width="80" height="30" as="geometry" />
        </mxCell>
        <mxCell id="g_5m_YDEpz64sHa5aTqE-20" value="" style="rounded=0;whiteSpace=wrap;html=1;" parent="1" vertex="1">
          <mxGeometry x="150" y="230" width="20" height="370" as="geometry" />
        </mxCell>
        <mxCell id="g_5m_YDEpz64sHa5aTqE-21" value="" style="rounded=0;whiteSpace=wrap;html=1;" parent="1" vertex="1">
          <mxGeometry x="290" y="255" width="20" height="345" as="geometry" />
        </mxCell>
        <mxCell id="g_5m_YDEpz64sHa5aTqE-22" value="" style="rounded=0;whiteSpace=wrap;html=1;" parent="1" vertex="1">
          <mxGeometry x="450" y="255" width="20" height="345" as="geometry" />
        </mxCell>
        <mxCell id="g_5m_YDEpz64sHa5aTqE-23" value="" style="rounded=0;whiteSpace=wrap;html=1;" parent="1" vertex="1">
          <mxGeometry x="610" y="255" width="20" height="330" as="geometry" />
        </mxCell>
        <mxCell id="g_5m_YDEpz64sHa5aTqE-24" value="" style="endArrow=classic;html=1;rounded=0;entryX=-0.2;entryY=0.073;entryDx=0;entryDy=0;entryPerimeter=0;" parent="1" target="g_5m_YDEpz64sHa5aTqE-21" edge="1">
          <mxGeometry width="50" height="50" relative="1" as="geometry">
            <mxPoint x="170" y="280" as="sourcePoint" />
            <mxPoint x="220" y="230" as="targetPoint" />
          </mxGeometry>
        </mxCell>
        <mxCell id="g_5m_YDEpz64sHa5aTqE-25" value="Criar Conta" style="text;html=1;align=center;verticalAlign=middle;whiteSpace=wrap;rounded=0;" parent="1" vertex="1">
          <mxGeometry x="190" y="255" width="70" height="30" as="geometry" />
        </mxCell>
        <mxCell id="g_5m_YDEpz64sHa5aTqE-26" value="" style="endArrow=classic;html=1;rounded=0;exitX=1.2;exitY=0.197;exitDx=0;exitDy=0;exitPerimeter=0;entryX=-0.1;entryY=0.197;entryDx=0;entryDy=0;entryPerimeter=0;" parent="1" source="g_5m_YDEpz64sHa5aTqE-21" target="g_5m_YDEpz64sHa5aTqE-22" edge="1">
          <mxGeometry width="50" height="50" relative="1" as="geometry">
            <mxPoint x="390" y="430" as="sourcePoint" />
            <mxPoint x="440" y="380" as="targetPoint" />
          </mxGeometry>
        </mxCell>
        <mxCell id="g_5m_YDEpz64sHa5aTqE-27" value="Criar tarefa" style="text;html=1;align=center;verticalAlign=middle;whiteSpace=wrap;rounded=0;" parent="1" vertex="1">
          <mxGeometry x="340" y="290" width="80" height="30" as="geometry" />
        </mxCell>
        <mxCell id="g_5m_YDEpz64sHa5aTqE-28" value="Editar tarefa" style="text;html=1;align=center;verticalAlign=middle;whiteSpace=wrap;rounded=0;" parent="1" vertex="1">
          <mxGeometry x="340" y="330" width="80" height="30" as="geometry" />
        </mxCell>
        <mxCell id="g_5m_YDEpz64sHa5aTqE-29" value="" style="endArrow=classic;html=1;rounded=0;exitX=1.2;exitY=0.197;exitDx=0;exitDy=0;exitPerimeter=0;entryX=-0.1;entryY=0.197;entryDx=0;entryDy=0;entryPerimeter=0;" parent="1" edge="1">
          <mxGeometry width="50" height="50" relative="1" as="geometry">
            <mxPoint x="313" y="360" as="sourcePoint" />
            <mxPoint x="447" y="360" as="targetPoint" />
          </mxGeometry>
        </mxCell>
        <mxCell id="g_5m_YDEpz64sHa5aTqE-30" value="Excluir tarefa" style="text;html=1;align=center;verticalAlign=middle;whiteSpace=wrap;rounded=0;" parent="1" vertex="1">
          <mxGeometry x="340" y="370" width="80" height="30" as="geometry" />
        </mxCell>
        <mxCell id="g_5m_YDEpz64sHa5aTqE-31" value="" style="endArrow=classic;html=1;rounded=0;exitX=1.2;exitY=0.197;exitDx=0;exitDy=0;exitPerimeter=0;entryX=-0.1;entryY=0.197;entryDx=0;entryDy=0;entryPerimeter=0;" parent="1" edge="1">
          <mxGeometry width="50" height="50" relative="1" as="geometry">
            <mxPoint x="313" y="400" as="sourcePoint" />
            <mxPoint x="447" y="400" as="targetPoint" />
          </mxGeometry>
        </mxCell>
        <mxCell id="g_5m_YDEpz64sHa5aTqE-32" value="" style="endArrow=classic;html=1;rounded=0;exitX=1.2;exitY=0.197;exitDx=0;exitDy=0;exitPerimeter=0;entryX=-0.1;entryY=0.197;entryDx=0;entryDy=0;entryPerimeter=0;" parent="1" edge="1">
          <mxGeometry width="50" height="50" relative="1" as="geometry">
            <mxPoint x="476" y="340" as="sourcePoint" />
            <mxPoint x="610" y="340" as="targetPoint" />
          </mxGeometry>
        </mxCell>
        <mxCell id="g_5m_YDEpz64sHa5aTqE-33" value="" style="endArrow=classic;html=1;rounded=0;exitX=1.2;exitY=0.197;exitDx=0;exitDy=0;exitPerimeter=0;entryX=-0.1;entryY=0.197;entryDx=0;entryDy=0;entryPerimeter=0;" parent="1" edge="1">
          <mxGeometry width="50" height="50" relative="1" as="geometry">
            <mxPoint x="476" y="384.5" as="sourcePoint" />
            <mxPoint x="610" y="384.5" as="targetPoint" />
          </mxGeometry>
        </mxCell>
        <mxCell id="g_5m_YDEpz64sHa5aTqE-34" value="" style="endArrow=classic;html=1;rounded=0;exitX=1.2;exitY=0.197;exitDx=0;exitDy=0;exitPerimeter=0;entryX=-0.1;entryY=0.197;entryDx=0;entryDy=0;entryPerimeter=0;" parent="1" edge="1">
          <mxGeometry width="50" height="50" relative="1" as="geometry">
            <mxPoint x="476" y="419.5" as="sourcePoint" />
            <mxPoint x="610" y="419.5" as="targetPoint" />
          </mxGeometry>
        </mxCell>
        <mxCell id="g_5m_YDEpz64sHa5aTqE-35" value="Update" style="text;html=1;align=center;verticalAlign=middle;whiteSpace=wrap;rounded=0;" parent="1" vertex="1">
          <mxGeometry x="500" y="310" width="80" height="30" as="geometry" />
        </mxCell>
        <mxCell id="g_5m_YDEpz64sHa5aTqE-36" value="Update" style="text;html=1;align=center;verticalAlign=middle;whiteSpace=wrap;rounded=0;" parent="1" vertex="1">
          <mxGeometry x="500" y="350" width="80" height="30" as="geometry" />
        </mxCell>
        <mxCell id="g_5m_YDEpz64sHa5aTqE-37" value="Update" style="text;html=1;align=center;verticalAlign=middle;whiteSpace=wrap;rounded=0;" parent="1" vertex="1">
          <mxGeometry x="500" y="390" width="80" height="30" as="geometry" />
        </mxCell>
        <mxCell id="g_5m_YDEpz64sHa5aTqE-38" value="" style="endArrow=classic;html=1;rounded=0;" parent="1" edge="1">
          <mxGeometry width="50" height="50" relative="1" as="geometry">
            <mxPoint x="170" y="440" as="sourcePoint" />
            <mxPoint x="290" y="440" as="targetPoint" />
          </mxGeometry>
        </mxCell>
        <mxCell id="g_5m_YDEpz64sHa5aTqE-39" value="Verificar tarefa" style="text;html=1;align=center;verticalAlign=middle;whiteSpace=wrap;rounded=0;" parent="1" vertex="1">
          <mxGeometry x="175" y="420" width="100" height="30" as="geometry" />
        </mxCell>
        <mxCell id="g_5m_YDEpz64sHa5aTqE-40" value="" style="rounded=0;whiteSpace=wrap;html=1;" parent="1" vertex="1">
          <mxGeometry x="300" y="520" width="20" height="65" as="geometry" />
        </mxCell>
        <mxCell id="g_5m_YDEpz64sHa5aTqE-41" value="" style="shape=partialRectangle;whiteSpace=wrap;html=1;top=0;left=0;fillColor=none;rotation=-90;" parent="1" vertex="1">
          <mxGeometry x="330" y="520" width="45" height="65" as="geometry" />
        </mxCell>
        <mxCell id="g_5m_YDEpz64sHa5aTqE-42" value="" style="endArrow=classic;html=1;rounded=0;entryX=0;entryY=0;entryDx=0;entryDy=0;exitX=0;exitY=1;exitDx=0;exitDy=0;" parent="1" source="g_5m_YDEpz64sHa5aTqE-41" target="g_5m_YDEpz64sHa5aTqE-41" edge="1">
          <mxGeometry width="50" height="50" relative="1" as="geometry">
            <mxPoint x="380" y="575" as="sourcePoint" />
            <mxPoint x="430" y="525" as="targetPoint" />
          </mxGeometry>
        </mxCell>
        <mxCell id="g_5m_YDEpz64sHa5aTqE-43" value="set Prazo" style="text;html=1;align=center;verticalAlign=middle;whiteSpace=wrap;rounded=0;" parent="1" vertex="1">
          <mxGeometry x="322.5" y="515" width="57.5" height="15" as="geometry" />
        </mxCell>
        <mxCell id="g_5m_YDEpz64sHa5aTqE-45" value="" style="endArrow=classic;html=1;rounded=0;entryX=-0.093;entryY=0.566;entryDx=0;entryDy=0;entryPerimeter=0;" parent="1" target="g_5m_YDEpz64sHa5aTqE-22" edge="1">
          <mxGeometry width="50" height="50" relative="1" as="geometry">
            <mxPoint x="310" y="450" as="sourcePoint" />
            <mxPoint x="360" y="400" as="targetPoint" />
          </mxGeometry>
        </mxCell>
        <mxCell id="g_5m_YDEpz64sHa5aTqE-46" value="Get Data e Hora" style="text;html=1;align=center;verticalAlign=middle;whiteSpace=wrap;rounded=0;" parent="1" vertex="1">
          <mxGeometry x="320" y="430" width="120" height="20" as="geometry" />
        </mxCell>
        <mxCell id="g_5m_YDEpz64sHa5aTqE-47" value="Get Data e Hora" style="text;html=1;align=center;verticalAlign=middle;whiteSpace=wrap;rounded=0;" parent="1" vertex="1">
          <mxGeometry x="480" y="440" width="120" height="20" as="geometry" />
        </mxCell>
        <mxCell id="g_5m_YDEpz64sHa5aTqE-48" value="" style="endArrow=classic;html=1;rounded=0;entryX=-0.15;entryY=0.591;entryDx=0;entryDy=0;entryPerimeter=0;" parent="1" edge="1">
          <mxGeometry width="50" height="50" relative="1" as="geometry">
            <mxPoint x="470" y="460" as="sourcePoint" />
            <mxPoint x="607" y="460" as="targetPoint" />
          </mxGeometry>
        </mxCell>
        <mxCell id="g_5m_YDEpz64sHa5aTqE-49" value="" style="endArrow=none;dashed=1;html=1;rounded=0;exitX=1.074;exitY=0.678;exitDx=0;exitDy=0;exitPerimeter=0;startArrow=classicThin;startFill=1;entryX=-0.14;entryY=0.71;entryDx=0;entryDy=0;entryPerimeter=0;" parent="1" source="g_5m_YDEpz64sHa5aTqE-22" target="g_5m_YDEpz64sHa5aTqE-23" edge="1">
          <mxGeometry width="50" height="50" relative="1" as="geometry">
            <mxPoint x="560" y="540" as="sourcePoint" />
            <mxPoint x="580" y="490" as="targetPoint" />
          </mxGeometry>
        </mxCell>
        <mxCell id="g_5m_YDEpz64sHa5aTqE-50" value="Return data e Hora" style="text;html=1;align=center;verticalAlign=middle;whiteSpace=wrap;rounded=0;" parent="1" vertex="1">
          <mxGeometry x="480" y="465" width="120" height="30" as="geometry" />
        </mxCell>
        <mxCell id="g_5m_YDEpz64sHa5aTqE-51" value="Return data e Hora" style="text;html=1;align=center;verticalAlign=middle;whiteSpace=wrap;rounded=0;" parent="1" vertex="1">
          <mxGeometry x="320" y="470" width="120" height="30" as="geometry" />
        </mxCell>
        <mxCell id="g_5m_YDEpz64sHa5aTqE-52" value="" style="endArrow=none;dashed=1;html=1;rounded=0;exitX=1.074;exitY=0.678;exitDx=0;exitDy=0;exitPerimeter=0;startArrow=classicThin;startFill=1;entryX=-0.14;entryY=0.71;entryDx=0;entryDy=0;entryPerimeter=0;" parent="1" edge="1">
          <mxGeometry width="50" height="50" relative="1" as="geometry">
            <mxPoint x="310" y="500" as="sourcePoint" />
            <mxPoint x="446" y="500" as="targetPoint" />
          </mxGeometry>
        </mxCell>
        <mxCell id="g_5m_YDEpz64sHa5aTqE-53" value="" style="endArrow=none;dashed=1;html=1;rounded=0;exitX=1.074;exitY=0.678;exitDx=0;exitDy=0;exitPerimeter=0;startArrow=classicThin;startFill=1;" parent="1" edge="1">
          <mxGeometry width="50" height="50" relative="1" as="geometry">
            <mxPoint x="170" y="585" as="sourcePoint" />
            <mxPoint x="290" y="585" as="targetPoint" />
          </mxGeometry>
        </mxCell>
        <mxCell id="g_5m_YDEpz64sHa5aTqE-54" value="Return tarefa e prazo" style="text;html=1;align=center;verticalAlign=middle;whiteSpace=wrap;rounded=0;" parent="1" vertex="1">
          <mxGeometry x="170" y="560" width="120" height="25" as="geometry" />
        </mxCell>
      </root>
    </mxGraphModel>
  </diagram>
</mxfile>
